<svg xmlns="http://www.w3.org/2000/svg" width="64" height="64" viewBox="0 0 64 64" fill="none" stroke="black" stroke-width="2" stroke-linecap="round" stroke-linejoin="round">
  <!-- 黒いバー部分と枠の上部丸みを一体化（fill=black） -->
  <path d="
    M1 9
    Q1 1 9 1
    L55 1
    Q63 1 63 9
    L63 13
    L1 13
    Z
  " fill="black" stroke="black" stroke-width="2" />

  <!-- 枠の残り（下側） -->
  <path d="
    M63 9
    L63 55
    Q63 63 55 63
    L9 63
    Q1 63 1 55
    L1 9
  " fill="none" stroke="black" stroke-width="2" />

  <!-- チェック付きリスト行1 -->
  <polyline points="12 24 16 28 22 22" stroke="black" fill="none" />
  <line x1="26" y1="26" x2="52" y2="26" />

  <!-- チェック付きリスト行2 -->
  <polyline points="12 38 16 42 22 36" stroke="black" fill="none" />
  <line x1="26" y1="40" x2="52" y2="40" />

  <!-- チェック付きリスト行3 -->
  <polyline points="12 52 16 56 22 50" stroke="black" fill="none" />
  <line x1="26" y1="54" x2="52" y2="54" />
</svg>